<?xml version="1.0" encoding="utf-8"?>
<!-- Generator: Adobe Illustrator 19.0.0, SVG Export Plug-In . SVG Version: 6.00 Build 0)  -->
<svg version="1.1" id="Layer_1" xmlns="http://www.w3.org/2000/svg" xmlns:xlink="http://www.w3.org/1999/xlink" x="0px" y="0px"
	 viewBox="0 0 20 19.5" style="enable-background:new 0 0 20 19.5;" xml:space="preserve">
<style type="text/css">
	.st0{fill:#ED1C24;}
</style>
<g id="XMLID_614_">
	<g id="XMLID_672_">
		<circle id="XMLID_681_" class="st0" cx="6.3" cy="10.9" r="1.7"/>
		<path id="XMLID_674_" class="st0" d="M3.4,16h13.1c0.8,0,1.4-0.6,1.4-1.4V7.3c0-0.8-0.6-1.4-1.4-1.4h-0.1h-2.6h-0.7H6l2-1.1
			L7.9,4.6l3.2-1.8L11,2.7l3.3-1.9c0,0.1,0.1,0.1,0.2,0.1L15,0.7c0.2-0.1,0.3-0.3,0.1-0.5C15,0,14.8-0.1,14.6,0l-0.4,0.2
			c-0.1,0-0.1,0.1-0.1,0.2l-3.3,1.9l-0.1-0.1L7.6,4L7.5,3.9L4.1,5.8H3.4C2.6,5.8,2,6.5,2,7.3v7.3C2,15.4,2.6,16,3.4,16z M16.6,13.7
			h-5c-0.2,0-0.3-0.1-0.3-0.3c0-0.2,0.1-0.3,0.3-0.3h5c0.2,0,0.3,0.1,0.3,0.3C17,13.5,16.8,13.7,16.6,13.7z M16.6,12.4h-5
			c-0.2,0-0.3-0.1-0.3-0.3c0-0.2,0.1-0.3,0.3-0.3h5c0.2,0,0.3,0.1,0.3,0.3C17,12.3,16.8,12.4,16.6,12.4z M16.6,11.2h-5
			c-0.2,0-0.3-0.1-0.3-0.3c0-0.2,0.1-0.3,0.3-0.3h5c0.2,0,0.3,0.1,0.3,0.3C17,11,16.8,11.2,16.6,11.2z M11.1,9.1
			c0-0.4,0.4-0.8,0.8-0.8h4.5c0.5,0,0.8,0.4,0.8,0.8v0c0,0.4-0.4,0.8-0.8,0.8H12C11.5,9.9,11.1,9.5,11.1,9.1L11.1,9.1z M6.3,7.2
			c2,0,3.7,1.7,3.7,3.7c0,2-1.7,3.7-3.7,3.7c-2,0-3.7-1.7-3.7-3.7C2.6,8.9,4.3,7.2,6.3,7.2z"/>
		<path id="XMLID_6_" class="st0" d="M20,15.6c-0.1-0.3-0.4-0.5-0.7-0.5c-0.2,0-0.3,0.1-0.5,0.2c-2.3,1.8-5.4,2.8-8.8,2.8
			c-3.3,0-6.4-1-8.8-2.8c-0.1-0.1-0.3-0.2-0.5-0.2c-0.3,0-0.6,0.2-0.7,0.5c-0.1,0.3,0,0.7,0.3,0.9c2.6,1.9,6.1,3,9.7,3
			s7.1-1.1,9.7-3C20,16.3,20.1,16,20,15.6z"/>
	</g>
</g>
</svg>
